<svg xmlns="http://www.w3.org/2000/svg" viewBox="0 0 64 64" fill="none">
  <rect x="3" y="3" width="58" height="58" rx="15" fill="#FFFFFF"/>
  <rect x="4" y="4" width="56" height="56" rx="14" stroke="#D8E6FB" stroke-width="2"/>
  <rect x="15" y="9" width="34" height="46" rx="9" fill="url(#phoneGradient)"/>
  <rect x="20" y="15" width="24" height="19" rx="5" fill="#FFFFFF"/>
  <path d="M24 22L28 25L24 28" stroke="#2563EB" stroke-width="2.5" stroke-linecap="round" stroke-linejoin="round"/>
  <path d="M31 28H39" stroke="#2563EB" stroke-width="2.5" stroke-linecap="round"/>
  <path d="M22 40H34" stroke="#FFFFFF" stroke-width="3" stroke-linecap="round"/>
  <path d="M22 46H41" stroke="#BFDBFE" stroke-width="3" stroke-linecap="round"/>
  <circle cx="43" cy="18" r="4" fill="#22C55E"/>
  <circle cx="43" cy="18" r="6.5" stroke="#FFFFFF" stroke-width="2"/>
  <path d="M48 43C51.3 43 54 40.3 54 37V28" stroke="#93C5FD" stroke-width="2.2" stroke-linecap="round"/>
  <path d="M54 28L57 31M54 28L51 31" stroke="#93C5FD" stroke-width="2.2" stroke-linecap="round" stroke-linejoin="round"/>
  <defs>
    <linearGradient id="phoneGradient" x1="15" y1="9" x2="55" y2="51" gradientUnits="userSpaceOnUse">
      <stop stop-color="#38BDF8"/>
      <stop offset=".48" stop-color="#2F7CF6"/>
      <stop offset="1" stop-color="#6D5EF7"/>
    </linearGradient>
  </defs>
</svg>
